<svg width="18" height="20" fill="none" xmlns="http://www.w3.org/2000/svg"><path d="M.145 18.186c.143.577.722.707 1.262.883.758.247 1.542.419 2.328.558 1.79.316 3.64.457 5.456.322.85-.064 1.611-.243 2.23-.863.48-.482.453-1.56.499-2.184.128-1.753-.045-3.435.46-5.14.188-.637.392-1.891 1.028-2.231.46-.246.607-.233.757.253.12.392.191.8.259 1.205.308 1.859.69 8.328.69 8.52 0 .162.653.026.741-.018.324-.165.114-1.316.114-1.62 0-.944.016-1.886.057-2.828.078-1.87.252-3.74.53-5.59.145-.96.32-1.912.536-2.856.102-.441.207-.882.313-1.324.037-.154.06-.32.076-.483.064-.705-.035-1.438-.432-2.023-.545-.804-1.228-1.506-1.973-2.124l-.096-.08c-.395-.33-.904-.634-1.168-.193-.883 1.469-1.968 2.813-2.757 4.337-.847 1.635-1.413 3.427-2.338 5.02-.464.798-1.008 1.243-1.916 1.436-.392.084-.759.207-1.099.424-.324.205-.56.515-.896.701-1.393.769-3.424.345-4.56 1.66-.448.518-.152 1.329-.123 1.95.036.716-.151 1.597.022 2.288z" fill="url(#paint0_linear)"/><defs><linearGradient id="paint0_linear" x1="7.804" y1="-9.25" x2="31.884" y2="2.539" gradientUnits="userSpaceOnUse"><stop offset=".043" stop-color="#D3478B"/><stop offset="1" stop-color="#5A09AB"/></linearGradient></defs></svg>