<svg width="18" height="18" fill="none" xmlns="http://www.w3.org/2000/svg"><path d="M0 2.7A2.7 2.7 0 012.7 0h2.7a2.7 2.7 0 012.7 2.7v2.7a2.7 2.7 0 01-2.7 2.7H2.7A2.7 2.7 0 010 5.4V2.7z" fill="url(#paint0_linear)"/><path d="M9.9 2.7A2.7 2.7 0 0112.6 0h2.7A2.7 2.7 0 0118 2.7v2.7a2.7 2.7 0 01-2.7 2.7h-2.7a2.7 2.7 0 01-2.7-2.7V2.7z" fill="url(#paint1_linear)"/><path d="M0 12.6a2.7 2.7 0 012.7-2.7h2.7a2.7 2.7 0 012.7 2.7v2.7A2.7 2.7 0 015.4 18H2.7A2.7 2.7 0 010 15.3v-2.7z" fill="url(#paint2_linear)"/><path d="M9.9 13.95a4.05 4.05 0 118.1 0 4.05 4.05 0 01-8.1 0z" fill="url(#paint3_linear)"/><defs><linearGradient id="paint0_linear" x1="8.025" y1="-8.325" x2="31.407" y2="4.755" gradientUnits="userSpaceOnUse"><stop offset=".043" stop-color="#D3478B"/><stop offset="1" stop-color="#5A09AB"/></linearGradient><linearGradient id="paint1_linear" x1="8.025" y1="-8.325" x2="31.407" y2="4.755" gradientUnits="userSpaceOnUse"><stop offset=".043" stop-color="#D3478B"/><stop offset="1" stop-color="#5A09AB"/></linearGradient><linearGradient id="paint2_linear" x1="8.025" y1="-8.325" x2="31.407" y2="4.755" gradientUnits="userSpaceOnUse"><stop offset=".043" stop-color="#D3478B"/><stop offset="1" stop-color="#5A09AB"/></linearGradient><linearGradient id="paint3_linear" x1="8.025" y1="-8.325" x2="31.407" y2="4.755" gradientUnits="userSpaceOnUse"><stop offset=".043" stop-color="#D3478B"/><stop offset="1" stop-color="#5A09AB"/></linearGradient></defs></svg>