<svg width="23" height="26" fill="none" xmlns="http://www.w3.org/2000/svg"><path d="M11.401 14.01h.172c1.578-.027 2.854-.582 3.796-1.643 2.073-2.336 1.729-6.342 1.69-6.724-.134-2.87-1.49-4.243-2.61-4.884C13.613.28 12.638.022 11.551 0h-.092c-.597 0-1.771.097-2.896.738-1.131.64-2.51 2.013-2.644 4.905-.038.382-.382 4.388 1.69 6.724.938 1.061 2.214 1.616 3.791 1.642zM7.353 5.82c.003-.03.01-.057.01-.086.178-3.86 2.918-4.275 4.092-4.275h.065c1.453.032 3.925.625 4.091 4.275 0 .03.007.057.01.086.038.415.278 3.768-1.334 5.584-.678.764-1.583 1.141-2.773 1.152h-.054c-1.184-.011-2.094-.388-2.767-1.152-1.607-1.805-1.377-5.17-1.34-5.585z" fill="url(#paint0_linear)"/><path d="M22.552 20.654v-.017c0-.043-.006-.086-.006-.134-.032-1.066-.102-3.56-2.439-4.356l-.054-.016c-2.428-.62-4.447-2.02-4.468-2.035a.726.726 0 10-.835 1.19c.091.064 2.234 1.556 4.916 2.245 1.254.447 1.394 1.787 1.432 3.015 0 .048 0 .091.005.134.012 1.06-.637 1.98-1.619 2.381-1.638.67-4.385 1.49-7.986 1.49-3.591 0-6.346-.825-7.991-1.496-.982-.401-1.643-1.32-1.62-2.38 0-.043.006-.086.006-.134.037-1.228.177-2.569 1.432-3.016 2.681-.689 4.824-2.186 4.916-2.245a.726.726 0 10-.835-1.19c-.021.016-2.03 1.416-4.469 2.035a.679.679 0 00-.054.017C.547 16.944.477 19.437.444 20.497c0 .049 0 .092-.005.135v.016c-.005.28-.01 1.718.275 2.44a.69.69 0 00.28.338C1.155 23.534 5.026 26 11.504 26c6.476 0 10.348-2.471 10.51-2.574a.72.72 0 00.28-.339c.268-.716.263-2.154.258-2.433z" fill="url(#paint1_linear)"/><defs><linearGradient id="paint0_linear" x1="10.298" y1="-12.025" x2="41.053" y2="2.609" gradientUnits="userSpaceOnUse"><stop offset=".043" stop-color="#D3478B"/><stop offset="1" stop-color="#5A09AB"/></linearGradient><linearGradient id="paint1_linear" x1="10.298" y1="-12.025" x2="41.053" y2="2.609" gradientUnits="userSpaceOnUse"><stop offset=".043" stop-color="#D3478B"/><stop offset="1" stop-color="#5A09AB"/></linearGradient></defs></svg>