<svg width="18" height="18" fill="none" xmlns="http://www.w3.org/2000/svg"><path d="M17.25 8.25a.75.75 0 00-.75.75c0 4.136-3.364 7.5-7.5 7.5S1.5 13.136 1.5 9 4.864 1.5 9 1.5a7.45 7.45 0 015.322 2.216.75.75 0 101.065-1.057A8.939 8.939 0 009 0C4.037 0 0 4.037 0 9s4.037 9 9 9 9-4.037 9-9a.75.75 0 00-.75-.75z" fill="#fff"/><path d="M12 8.25A2.25 2.25 0 019.75 6a.75.75 0 00-1.5 0A2.25 2.25 0 016 8.25a.75.75 0 000 1.5A2.25 2.25 0 018.25 12a.75.75 0 001.5 0A2.25 2.25 0 0112 9.75a.75.75 0 000-1.5z" fill="#fff"/></svg>