<svg width="673" height="653" fill="none" xmlns="http://www.w3.org/2000/svg"><g filter="url(#filter0_i)"><path fill-rule="evenodd" clip-rule="evenodd" d="M444.787 150.931c38.526 22.899 86.188 29.725 113.998 64.87 34.61 43.738 81.049 101.752 58.046 152.553-23.875 52.728-107.399 34.207-156.495 64.869-40.67 25.401-55.67 83.695-101.881 96.5-50.332 13.946-114.39 11.147-150.536-26.559-36.196-37.758-2.374-102.586-20.348-151.702-17.983-49.14-89.1-77.191-82.406-129.083 6.549-50.768 67.437-74.237 111.905-99.591 38.658-22.042 81.1-41.098 125.27-35.64 40.922 5.058 67 42.714 102.447 63.783z" fill="url(#paint0_linear)" fill-opacity=".7"/></g><g filter="url(#filter1_i)"><path fill-rule="evenodd" clip-rule="evenodd" d="M225.634 412.601c8.037-24.104 6.068-51.33 22.18-70.975 20.053-24.448 46.587-57.172 77.502-50.559 32.089 6.864 31.906 55.366 54.814 78.862 18.978 19.465 53.079 20.74 65.747 44.794 13.797 26.198 19.976 62.02 3.45 86.592-16.549 24.606-56.54 13.691-81.579 29.574-25.05 15.89-32.009 58.668-61.562 61.221-28.912 2.497-49.258-28.399-68.668-49.973-16.874-18.755-32.55-39.966-34.855-65.092-2.136-23.279 15.577-42.267 22.971-64.444z" fill="#280416" fill-opacity=".1"/></g><defs><filter id="filter0_i" x="0" y="0" width="672.619" height="656.779" filterUnits="userSpaceOnUse" color-interpolation-filters="sRGB"><feFlood flood-opacity="0" result="BackgroundImageFix"/><feBlend in="SourceGraphic" in2="BackgroundImageFix" result="shape"/><feColorMatrix in="SourceAlpha" values="0 0 0 0 0 0 0 0 0 0 0 0 0 0 0 0 0 0 127 0" result="hardAlpha"/><feOffset dy="4"/><feGaussianBlur stdDeviation="16.5"/><feComposite in2="hardAlpha" operator="arithmetic" k2="-1" k3="1"/><feColorMatrix values="0 0 0 0 0 0 0 0 0 0 0 0 0 0 0 0 0 0 1 0"/><feBlend in2="shape" result="effect1_innerShadow"/></filter><filter id="filter1_i" x="166" y="270" width="339.83" height="367.043" filterUnits="userSpaceOnUse" color-interpolation-filters="sRGB"><feFlood flood-opacity="0" result="BackgroundImageFix"/><feBlend in="SourceGraphic" in2="BackgroundImageFix" result="shape"/><feColorMatrix in="SourceAlpha" values="0 0 0 0 0 0 0 0 0 0 0 0 0 0 0 0 0 0 127 0" result="hardAlpha"/><feOffset dy="4"/><feGaussianBlur stdDeviation="16.5"/><feComposite in2="hardAlpha" operator="arithmetic" k2="-1" k3="1"/><feColorMatrix values="0 0 0 0 0 0 0 0 0 0 0 0 0 0 0 0 0 0 1 0"/><feBlend in2="shape" result="effect1_innerShadow"/></filter><linearGradient id="paint0_linear" x1="550.082" y1="-41.366" x2="836.718" y2="634.703" gradientUnits="userSpaceOnUse"><stop offset=".043" stop-color="#D3478B"/><stop offset="1" stop-color="#5A09AB"/></linearGradient></defs></svg>