<svg width="17" height="18" fill="none" xmlns="http://www.w3.org/2000/svg"><path d="M4.469 4.546a.564.564 0 01-.564-.564V.564a.564.564 0 111.128 0v3.418a.564.564 0 01-.564.564z" fill="url(#paint0_linear)"/><path d="M11.821 4.546a.564.564 0 01-.563-.564V.564a.564.564 0 111.127 0v3.418a.564.564 0 01-.564.564z" fill="url(#paint1_linear)"/><path d="M0 7.82v7.776A2.407 2.407 0 002.404 18h11.482a2.407 2.407 0 002.405-2.404V7.819H0z" fill="url(#paint2_linear)"/><path d="M16.29 6.692V4.114a2.407 2.407 0 00-2.404-2.405h-.373v2.273a1.692 1.692 0 01-3.381.001V1.708H6.158v2.273c0 .933-.758 1.691-1.69 1.691a1.692 1.692 0 01-1.691-1.69V1.708h-.374A2.407 2.407 0 000 4.113v2.579h16.29z" fill="url(#paint3_linear)"/><defs><linearGradient id="paint0_linear" x1="7.221" y1="-8.88" x2="7.221" y2="39.1" gradientUnits="userSpaceOnUse"><stop stop-color="#D61C75"/><stop offset="1" stop-color="#C488FF"/></linearGradient><linearGradient id="paint1_linear" x1="7.221" y1="-8.88" x2="7.221" y2="39.1" gradientUnits="userSpaceOnUse"><stop stop-color="#D61C75"/><stop offset="1" stop-color="#C488FF"/></linearGradient><linearGradient id="paint2_linear" x1="7.221" y1="-8.88" x2="7.221" y2="39.1" gradientUnits="userSpaceOnUse"><stop stop-color="#D61C75"/><stop offset="1" stop-color="#C488FF"/></linearGradient><linearGradient id="paint3_linear" x1="7.221" y1="-8.88" x2="7.221" y2="39.1" gradientUnits="userSpaceOnUse"><stop stop-color="#D61C75"/><stop offset="1" stop-color="#C488FF"/></linearGradient></defs></svg>