<svg width="15" height="20" fill="none" xmlns="http://www.w3.org/2000/svg"><path d="M15 7.5C15 3.364 11.636 0 7.5 0S0 3.364 0 7.5c0 3.493 2.402 6.428 5.64 7.258.348.089.61.393.61.753 0 .408-.33.739-.739.739H5a1.25 1.25 0 100 2.5h.625c.345 0 .625.28.625.625s.28.625.625.625h1.25c.345 0 .625-.28.625-.625s.28-.625.625-.625H10a1.25 1.25 0 100-2.5h-.511a.739.739 0 01-.739-.739c0-.36.262-.664.61-.753C12.599 13.928 15 10.992 15 7.5zm-12.5 0c0-2.757 2.243-5 5-5s5 2.243 5 5-2.243 5-5 5-5-2.243-5-5z" fill="url(#paint0_linear)"/><defs><linearGradient id="paint0_linear" x1="6.688" y1="-9.25" x2="28.441" y2="-.123" gradientUnits="userSpaceOnUse"><stop offset=".043" stop-color="#D3478B"/><stop offset="1" stop-color="#5A09AB"/></linearGradient></defs></svg>