<svg width="11" height="11" fill="none" xmlns="http://www.w3.org/2000/svg"><path d="M5.5 11C8.533 11 11 8.533 11 5.5S8.533 0 5.5 0A5.506 5.506 0 000 5.5C0 8.532 2.467 11 5.5 11zM5.5.852A4.653 4.653 0 0110.148 5.5 4.653 4.653 0 015.5 10.148 4.653 4.653 0 01.852 5.5 4.653 4.653 0 015.5.852z" fill="url(#paint0_linear)"/><path d="M3.067 4.912l2.13 2.13a.426.426 0 00.601 0l2.13-2.13a.426.426 0 00-.6-.6 2.59 2.59 0 01-3.66 0 .426.426 0 00-.6.6z" fill="url(#paint1_linear)"/><defs><linearGradient id="paint0_linear" x1="4.904" y1="-5.088" x2="19.193" y2="2.906" gradientUnits="userSpaceOnUse"><stop offset=".043" stop-color="#D3478B"/><stop offset="1" stop-color="#5A09AB"/></linearGradient><linearGradient id="paint1_linear" x1="4.904" y1="-5.088" x2="19.193" y2="2.906" gradientUnits="userSpaceOnUse"><stop offset=".043" stop-color="#D3478B"/><stop offset="1" stop-color="#5A09AB"/></linearGradient></defs></svg>