<svg width="9" height="5" fill="none" xmlns="http://www.w3.org/2000/svg"><g opacity=".4"><rect width="1" height="8" rx=".5" transform="matrix(0 -1 -1 0 8.5 1)" fill="#601F3E"/><rect x="-.25" y="-.25" width=".5" height="7.5" rx=".25" transform="matrix(0 -1 -1 0 8 .5)" stroke="url(#paint0_linear)" stroke-opacity=".4" stroke-width=".5"/></g><g opacity=".4"><rect width="1" height="8" rx=".5" transform="matrix(0 -1 -1 0 8.5 3)" fill="#601F3E"/><rect x="-.25" y="-.25" width=".5" height="7.5" rx=".25" transform="matrix(0 -1 -1 0 8 2.5)" stroke="url(#paint1_linear)" stroke-opacity=".4" stroke-width=".5"/></g><g opacity=".4"><rect width="1" height="8" rx=".5" transform="matrix(0 -1 -1 0 8.5 5)" fill="#601F3E"/><rect x="-.25" y="-.25" width=".5" height="7.5" rx=".25" transform="matrix(0 -1 -1 0 8 4.5)" stroke="url(#paint2_linear)" stroke-opacity=".4" stroke-width=".5"/></g><defs><linearGradient id="paint0_linear" x1=".5" y1="0" x2=".5" y2="8" gradientUnits="userSpaceOnUse"><stop stop-color="#60198D"/><stop offset="1" stop-color="#8E2558"/></linearGradient><linearGradient id="paint1_linear" x1=".5" y1="0" x2=".5" y2="8" gradientUnits="userSpaceOnUse"><stop stop-color="#60198D"/><stop offset="1" stop-color="#8E2558"/></linearGradient><linearGradient id="paint2_linear" x1=".5" y1="0" x2=".5" y2="8" gradientUnits="userSpaceOnUse"><stop stop-color="#60198D"/><stop offset="1" stop-color="#8E2558"/></linearGradient></defs></svg>