<svg width="13" height="10" fill="none" xmlns="http://www.w3.org/2000/svg"><path d="M11.59 10c.287 0 .535-.094.745-.28L8.73 6.112l-.25.18c-.27.198-.489.354-.657.465a4.048 4.048 0 01-.671.34c-.28.117-.54.175-.781.175h-.015c-.241 0-.501-.058-.78-.174a4.035 4.035 0 01-.672-.341 16.734 16.734 0 01-.657-.465 31.232 31.232 0 00-.249-.18L.392 9.718c.21.187.458.281.744.281h10.455z" fill="url(#paint0_linear)"/><path d="M.717 3.842A3.72 3.72 0 010 3.224v5.487l3.178-3.178a245.56 245.56 0 00-2.46-1.69z" fill="url(#paint1_linear)"/><path d="M12.017 3.842c-.967.655-1.79 1.219-2.467 1.692l3.177 3.177V3.224a3.92 3.92 0 01-.71.618z" fill="url(#paint2_linear)"/><path d="M11.59 0H1.137C.772 0 .491.123.295.37.098.614 0 .922 0 1.292c0 .298.13.62.39.97.26.347.538.62.832.82.16.113.646.45 1.456 1.011a472.542 472.542 0 011.86 1.297l.106.075.196.141c.154.112.282.201.384.27.101.069.225.146.37.231.143.085.28.15.407.192.128.042.247.064.356.064h.014c.109 0 .227-.022.355-.064a2.15 2.15 0 00.408-.192 7.566 7.566 0 00.753-.5 48.014 48.014 0 01.302-.217l.719-.5 2.605-1.809c.345-.241.634-.532.866-.873a1.88 1.88 0 00.348-1.073c0-.312-.113-.58-.337-.802a1.099 1.099 0 00-.8-.334z" fill="url(#paint3_linear)"/><defs><linearGradient id="paint0_linear" x1="5.686" y1="4.194" x2="5.686" y2="14.558" gradientUnits="userSpaceOnUse"><stop stop-color="#D61C75"/><stop offset="1" stop-color="#C488FF"/></linearGradient><linearGradient id="paint1_linear" x1="1.409" y1=".518" x2="1.409" y2="15.142" gradientUnits="userSpaceOnUse"><stop stop-color="#D61C75"/><stop offset="1" stop-color="#C488FF"/></linearGradient><linearGradient id="paint2_linear" x1="10.958" y1=".518" x2="10.958" y2="15.142" gradientUnits="userSpaceOnUse"><stop stop-color="#D61C75"/><stop offset="1" stop-color="#C488FF"/></linearGradient><linearGradient id="paint3_linear" x1="5.641" y1="-3.139" x2="5.641" y2="13.823" gradientUnits="userSpaceOnUse"><stop stop-color="#D61C75"/><stop offset="1" stop-color="#C488FF"/></linearGradient></defs></svg>