<svg width="24" height="25" fill="none" xmlns="http://www.w3.org/2000/svg"><path d="M22.573 11.198a.782.782 0 01-.781-.781 11.13 11.13 0 00-3.28-7.92.781.781 0 111.106-1.104 12.681 12.681 0 013.736 9.024c0 .43-.35.78-.781.78z" fill="url(#paint0_linear)"/><path d="M1.219 11.198a.782.782 0 01-.782-.781c0-3.409 1.328-6.614 3.738-9.023A.782.782 0 015.28 2.499 11.12 11.12 0 002 10.417c0 .43-.35.78-.781.78z" fill="url(#paint1_linear)"/><path d="M11.896 25a3.91 3.91 0 01-3.906-3.906.782.782 0 011.562 0 2.346 2.346 0 002.344 2.343 2.346 2.346 0 002.344-2.343.782.782 0 011.562 0A3.91 3.91 0 0111.896 25z" fill="url(#paint2_linear)"/><path d="M20.49 21.875H3.302a1.825 1.825 0 01-1.185-3.208 6.98 6.98 0 002.487-5.346v-2.904c0-4.021 3.271-7.292 7.292-7.292 4.02 0 7.291 3.27 7.291 7.292v2.904a6.98 6.98 0 002.478 5.338 1.823 1.823 0 01-1.175 3.216zM11.896 4.687c-3.16 0-5.73 2.57-5.73 5.73v2.904a8.537 8.537 0 01-3.03 6.531.26.26 0 00.166.46H20.49c.141 0 .26-.118.26-.26a.256.256 0 00-.092-.198 8.54 8.54 0 01-3.033-6.533v-2.904c0-3.16-2.57-5.73-5.73-5.73z" fill="url(#paint3_linear)"/><path d="M11.896 4.688a.782.782 0 01-.781-.782V.781a.782.782 0 011.562 0v3.125a.78.78 0 01-.781.781z" fill="url(#paint4_linear)"/><defs><linearGradient id="paint0_linear" x1="10.655" y1="-11.563" x2="41.602" y2="4.306" gradientUnits="userSpaceOnUse"><stop offset=".043" stop-color="#D3478B"/><stop offset="1" stop-color="#5A09AB"/></linearGradient><linearGradient id="paint1_linear" x1="10.655" y1="-11.563" x2="41.602" y2="4.306" gradientUnits="userSpaceOnUse"><stop offset=".043" stop-color="#D3478B"/><stop offset="1" stop-color="#5A09AB"/></linearGradient><linearGradient id="paint2_linear" x1="10.655" y1="-11.563" x2="41.602" y2="4.306" gradientUnits="userSpaceOnUse"><stop offset=".043" stop-color="#D3478B"/><stop offset="1" stop-color="#5A09AB"/></linearGradient><linearGradient id="paint3_linear" x1="10.655" y1="-11.563" x2="41.602" y2="4.306" gradientUnits="userSpaceOnUse"><stop offset=".043" stop-color="#D3478B"/><stop offset="1" stop-color="#5A09AB"/></linearGradient><linearGradient id="paint4_linear" x1="10.655" y1="-11.563" x2="41.602" y2="4.306" gradientUnits="userSpaceOnUse"><stop offset=".043" stop-color="#D3478B"/><stop offset="1" stop-color="#5A09AB"/></linearGradient></defs></svg>