<svg width="14" height="13" fill="none" xmlns="http://www.w3.org/2000/svg"><path d="M9.883 8.6c-.424-.42-.955-.42-1.377 0a79.25 79.25 0 00-.96.963c-.087.089-.16.108-.265.048-.208-.113-.43-.205-.63-.33-.934-.587-1.715-1.341-2.408-2.19-.344-.423-.65-.875-.863-1.383-.043-.103-.035-.17.049-.254.322-.312.635-.63.952-.95.44-.444.44-.963-.003-1.41-.251-.254-.503-.502-.754-.757-.26-.26-.517-.522-.78-.779-.424-.414-.954-.414-1.376.003-.325.319-.636.646-.966.96a1.57 1.57 0 00-.493 1.058c-.051.673.114 1.31.347 1.929.476 1.282 1.2 2.42 2.08 3.465a12.874 12.874 0 004.263 3.335c.747.363 1.52.642 2.362.688.579.032 1.082-.114 1.485-.566.276-.308.587-.59.88-.884.432-.439.435-.969.005-1.402-.514-.516-1.031-1.03-1.548-1.544z" fill="url(#paint0_linear)"/><path d="M10.361 6.444l.998-.17a4.461 4.461 0 00-1.247-2.408 4.437 4.437 0 00-2.543-1.27l-.14 1.005c.749.105 1.43.443 1.97.982.508.508.84 1.152.962 1.86z" fill="url(#paint1_linear)"/><path d="M11.922 2.105A7.36 7.36 0 007.702 0l-.14 1.004a6.382 6.382 0 013.646 1.817 6.377 6.377 0 011.788 3.45l.998-.17a7.414 7.414 0 00-2.072-3.996z" fill="url(#paint2_linear)"/><defs><linearGradient id="paint0_linear" x1="5.209" y1="-4.549" x2="5.209" y2="26.776" gradientUnits="userSpaceOnUse"><stop stop-color="#D61C75"/><stop offset="1" stop-color="#C488FF"/></linearGradient><linearGradient id="paint1_linear" x1="9.171" y1=".699" x2="9.171" y2="10.953" gradientUnits="userSpaceOnUse"><stop stop-color="#D61C75"/><stop offset="1" stop-color="#C488FF"/></linearGradient><linearGradient id="paint2_linear" x1="10.413" y1="-3.093" x2="10.413" y2="13.621" gradientUnits="userSpaceOnUse"><stop stop-color="#D61C75"/><stop offset="1" stop-color="#C488FF"/></linearGradient></defs></svg>