<svg width="10" height="13" fill="none" xmlns="http://www.w3.org/2000/svg"><path d="M4.951 0A4.957 4.957 0 000 4.951c0 1.08.341 2.107.988 2.968l3.658 4.927c.01.012.023.017.033.028a.369.369 0 00.577-.028c1.054-1.405 2.985-4.03 3.727-5.02v-.002l.005-.006c.598-.84.914-1.832.914-2.867A4.957 4.957 0 004.952 0zm0 7.622a2.678 2.678 0 01-2.67-2.67A2.678 2.678 0 014.95 2.28a2.678 2.678 0 012.671 2.671 2.678 2.678 0 01-2.67 2.671z" fill="url(#paint0_linear)"/><defs><linearGradient id="paint0_linear" x1="4.389" y1="-6.413" x2="4.389" y2="28.239" gradientUnits="userSpaceOnUse"><stop stop-color="#D61C75"/><stop offset="1" stop-color="#C488FF"/></linearGradient></defs></svg>