<svg width="4" height="5" fill="none" xmlns="http://www.w3.org/2000/svg"><g opacity=".4"><rect width="1" height="4" rx=".5" transform="matrix(0 -1 -1 0 4 1)" fill="#601F3E"/><rect x="-.25" y="-.25" width=".5" height="3.5" rx=".25" transform="matrix(0 -1 -1 0 3.5 .5)" stroke="url(#paint000_linear)" stroke-opacity=".4" stroke-width=".5"/></g><g opacity=".4"><rect width="1" height="4" rx=".5" transform="matrix(0 -1 -1 0 4 3)" fill="#601F3E"/><rect x="-.25" y="-.25" width=".5" height="3.5" rx=".25" transform="matrix(0 -1 -1 0 3.5 2.5)" stroke="url(#paint100_linear)" stroke-opacity=".4" stroke-width=".5"/></g><g opacity=".4"><rect width="1" height="4" rx=".5" transform="matrix(0 -1 -1 0 4 5)" fill="#601F3E"/><rect x="-.25" y="-.25" width=".5" height="3.5" rx=".25" transform="matrix(0 -1 -1 0 3.5 4.5)" stroke="url(#paint200_linear)" stroke-opacity=".4" stroke-width=".5"/></g><defs><linearGradient id="paint000_linear" x1=".5" y1="0" x2=".5" y2="4" gradientUnits="userSpaceOnUse"><stop stop-color="#60198D"/><stop offset="1" stop-color="#8E2558"/></linearGradient><linearGradient id="paint100_linear" x1=".5" y1="0" x2=".5" y2="4" gradientUnits="userSpaceOnUse"><stop stop-color="#60198D"/><stop offset="1" stop-color="#8E2558"/></linearGradient><linearGradient id="paint200_linear" x1=".5" y1="0" x2=".5" y2="4" gradientUnits="userSpaceOnUse"><stop stop-color="#60198D"/><stop offset="1" stop-color="#8E2558"/></linearGradient></defs></svg>