<svg width="21" height="21" fill="none" xmlns="http://www.w3.org/2000/svg"><path d="M10.249 1.054c1.62 0 3.244.47 4.694 1.36.92.565 1.747 1.276 2.45 2.106l-2.424-.081a.52.52 0 00-.532.509c-.01.29.214.535.498.544l3.353.113a.508.508 0 00.561-.115.536.536 0 00.112-.574l-.11-3.425a.521.521 0 00-.528-.515.522.522 0 00-.504.55l.064 1.976a11.298 11.298 0 00-2.409-1.992C13.864.522 12.056 0 10.25 0 7.36 0 4.699 1.217 2.753 3.426 1.029 5.383 0 8.018 0 10.473c0 .291.23.527.516.527a.521.521 0 00.515-.527c0-2.202.93-4.573 2.488-6.342 1.748-1.984 4.138-3.077 6.73-3.077zM20.484 10a.521.521 0 00-.515.527c0 2.202-.93 4.573-2.488 6.342-1.748 1.984-4.138 3.077-6.73 3.077-1.62 0-3.244-.47-4.694-1.36a10.227 10.227 0 01-2.45-2.106l2.424.081a.52.52 0 00.532-.51.522.522 0 00-.498-.543l-3.353-.113a.508.508 0 00-.561.115.535.535 0 00-.112.573l.11 3.426a.521.521 0 00.528.515.522.522 0 00.504-.539v-.011l-.064-1.976c.71.774 1.52 1.445 2.409 1.992 1.61.988 3.418 1.51 5.225 1.51 2.888 0 5.55-1.217 7.496-3.426C19.971 15.617 21 12.983 21 10.527a.521.521 0 00-.516-.527z" fill="#D4488B"/></svg>