<svg width="673" height="653" fill="none" xmlns="http://www.w3.org/2000/svg"><g filter="url(#filter0_i)"><path fill-rule="evenodd" clip-rule="evenodd" d="M444.787 150.931c38.526 22.899 86.188 29.725 113.998 64.87 34.61 43.738 81.049 101.752 58.046 152.553-23.875 52.728-107.399 34.207-156.495 64.869-40.67 25.401-55.67 83.695-101.881 96.5-50.332 13.946-114.39 11.147-150.536-26.559-36.196-37.758-2.374-102.586-20.348-151.702-17.983-49.14-89.1-77.191-82.406-129.083 6.549-50.768 67.437-74.237 111.905-99.591 38.658-22.042 81.1-41.098 125.27-35.64 40.922 5.058 67 42.714 102.447 63.783z" fill="url(#paint0_linear)" fill-opacity=".7"/></g><defs><linearGradient id="paint0_linear" x1="550.082" y1="-41.366" x2="836.718" y2="634.703" gradientUnits="userSpaceOnUse"><stop offset=".043" stop-color="#D3478B"/><stop offset="1" stop-color="#5A09AB"/></linearGradient><filter id="filter0_i" x="0" y="0" width="672.619" height="656.779" filterUnits="userSpaceOnUse" color-interpolation-filters="sRGB"><feFlood flood-opacity="0" result="BackgroundImageFix"/><feBlend in="SourceGraphic" in2="BackgroundImageFix" result="shape"/><feColorMatrix in="SourceAlpha" values="0 0 0 0 0 0 0 0 0 0 0 0 0 0 0 0 0 0 127 0" result="hardAlpha"/><feOffset dy="4"/><feGaussianBlur stdDeviation="16.5"/><feComposite in2="hardAlpha" operator="arithmetic" k2="-1" k3="1"/><feColorMatrix values="0 0 0 0 0 0 0 0 0 0 0 0 0 0 0 0 0 0 1 0"/><feBlend in2="shape" result="effect1_innerShadow"/></filter></defs></svg>