<svg width="340" height="364" fill="none" xmlns="http://www.w3.org/2000/svg"><g filter="url(#filter0_i)"><path fill-rule="evenodd" clip-rule="evenodd" d="M59.634 142.601c8.037-24.104 6.067-51.33 22.18-70.975 20.053-24.448 46.587-57.172 77.502-50.559 32.089 6.864 31.906 55.366 54.814 78.862 18.978 19.465 53.079 20.74 65.747 44.794 13.797 26.198 19.976 62.02 3.45 86.592-16.549 24.606-56.54 13.691-81.579 29.574-25.05 15.89-32.009 58.668-61.562 61.221-28.912 2.497-49.258-28.399-68.668-49.973-16.874-18.755-32.55-39.966-34.855-65.092-2.136-23.279 15.577-42.267 22.971-64.444z" fill="#280416" fill-opacity=".1"/></g><defs><filter id="filter0_i" x="0" y="0" width="339.83" height="367.043" filterUnits="userSpaceOnUse" color-interpolation-filters="sRGB"><feFlood flood-opacity="0" result="BackgroundImageFix"/><feBlend in="SourceGraphic" in2="BackgroundImageFix" result="shape"/><feColorMatrix in="SourceAlpha" values="0 0 0 0 0 0 0 0 0 0 0 0 0 0 0 0 0 0 127 0" result="hardAlpha"/><feOffset dy="4"/><feGaussianBlur stdDeviation="16.5"/><feComposite in2="hardAlpha" operator="arithmetic" k2="-1" k3="1"/><feColorMatrix values="0 0 0 0 0 0 0 0 0 0 0 0 0 0 0 0 0 0 1 0"/><feBlend in2="shape" result="effect1_innerShadow"/></filter></defs></svg>